<svg xmlns="http://www.w3.org/2000/svg" viewBox="0 0 410.33 342.49"><defs><style>.cls-1{fill:#663695;}</style></defs><g id="Layer_2" data-name="Layer 2"><g id="Layer_1-2" data-name="Layer 1"><path class="cls-1" d="M406.76,75.91l-36.1-55.58a22.14,22.14,0,0,0-14.31-9.66L303.75.41a22.08,22.08,0,0,0-16.28,3.16L174.13,77.19q21.93-6.93,51.83-6.93a305.27,305.27,0,0,1,47.43,4,226.42,226.42,0,0,0,38.08,3.68q21.36,0,38.74-7-.68,21.72-11,32.07t-30.73,10.35a137.5,137.5,0,0,1-21.38-1.67Q276.4,110,256.69,106L222.16,266.62l166.1-107.89a22.12,22.12,0,0,0,9.5-13.59l12-52.23A22.15,22.15,0,0,0,406.76,75.91ZM367.3,68.37a12.08,12.08,0,1,1,3.55-16.71A12.09,12.09,0,0,1,367.3,68.37Z"/><path class="cls-1" d="M209.93,99.31h-4q-29.73,0-46.26,14.87t-16.53,52.6q0,12.36,2.34,17.2c1.55,3.23,2.34,5.07,2.34,5.51q-18,0-26.89-7.51t-8.85-24.88a82.62,82.62,0,0,1,11.69-43.26,65.85,65.85,0,0,1,4.94-7.14L10.07,183.75a22.12,22.12,0,0,0-6.5,30.59l76.7,118.08a22.12,22.12,0,0,0,30.59,6.5l55.39-36Z"/></g></g></svg>