<svg xmlns="http://www.w3.org/2000/svg" viewBox="0 0 634.77 403.92"><defs><style>.cls-1{fill:none;}.cls-2{fill:#663695;}</style></defs><g id="Layer_2" data-name="Layer 2"><g id="Layer_1-2" data-name="Layer 1"><path class="cls-1" d="M512.19,363.17c0,2.68,1.34,5.18,4,7.52a13.75,13.75,0,0,0,9.35,3.51c4,0,7.79-2.07,11.36-6.18s6.34-10.75,8.35-19.88l4-19.7q-17.71,6-27.39,14A25.62,25.62,0,0,0,512.19,363.17Z"/><path class="cls-1" d="M376.59,172.46q-13.36,0-24,15.53t-16.7,37.41q-6,21.89-6,38.58t4.85,21.37A16.4,16.4,0,0,0,346.53,290q8.36,0,16.54-7.85t11.18-21.54l16-75.49a13.58,13.58,0,0,0-3.34-8.51Q383.61,172.46,376.59,172.46Z"/><circle class="cls-1" cx="360.72" cy="58.24" r="12.08" transform="translate(126.22 338.46) rotate(-59.25)"/><path class="cls-1" d="M566.3,172.46q-13.37,0-24,15.53t-16.7,37.41q-6,21.89-6,38.58t4.84,21.37A16.42,16.42,0,0,0,536.24,290q7.68,0,15.53-6.51T563,265l17-80.83Q577.32,172.47,566.3,172.46Z"/><path class="cls-2" d="M319.65,170.62q19.53-18.85,46.59-18.87,13.69,0,20.37,4.68a17.47,17.47,0,0,1,2.24,1.87,22.09,22.09,0,0,0,8.91-13.16l12-52.23a22.15,22.15,0,0,0-3-17l-36.1-55.58a22.14,22.14,0,0,0-14.31-9.66L303.75.41a22.08,22.08,0,0,0-16.28,3.16L174.13,77.19q21.93-6.93,51.83-6.93a305.27,305.27,0,0,1,47.43,4,226.42,226.42,0,0,0,38.08,3.68q21.36,0,38.74-7-.68,21.72-11,32.07t-30.73,10.35a137.5,137.5,0,0,1-21.38-1.67Q276.4,110,256.69,106L222.16,266.62,287.79,224q1.14-3.62,2.46-7.27A119.67,119.67,0,0,1,319.65,170.62ZM354.14,48.11a12.08,12.08,0,1,1-3.55,16.71A12.09,12.09,0,0,1,354.14,48.11Z"/><path class="cls-2" d="M205.92,99.31q-29.73,0-46.26,14.87t-16.53,52.6q0,12.36,2.34,17.2c1.55,3.23,2.34,5.07,2.34,5.51q-18,0-26.89-7.51t-8.85-24.88a82.62,82.62,0,0,1,11.69-43.26,67.2,67.2,0,0,1,4.93-7.14L10.07,183.75a22.12,22.12,0,0,0-6.5,30.59l76.7,118.08a22.12,22.12,0,0,0,30.59,6.5l55.39-36L209.93,99.31Z"/><path class="cls-2" d="M470.37,260.64h-9.94q-4,14-10.86,22.71T433.37,292q-13.69,0-13.69-14.36A41,41,0,0,1,421,267l24-113.56H397l-3.68,17.7v-2.33a14,14,0,0,0-4.44-10.49c-.2.14-.39.3-.59.43L287.79,224a147.65,147.65,0,0,0-7.39,44.66q0,27.74,12.69,40.75t31.73,13q16.37,0,28.23-8.52a93.4,93.4,0,0,0,21.54-22.21q1.67,15,10.19,22.88t22.54,7.85q18.36,0,36.57-12.86,15.17-10.71,26.27-37.55c0-1.1-.05-2.23-.05-3.37Q470.11,264.68,470.37,260.64Zm-96.12,0q-3,13.69-11.18,21.54T346.53,290a16.4,16.4,0,0,1-11.85-4.68q-4.86-4.67-4.85-21.37t6-38.58q6-21.87,16.7-37.41t24-15.53q7,0,10.36,4.18a13.58,13.58,0,0,1,3.34,8.51Z"/><path class="cls-2" d="M586.34,153.42l-3.34,16v-.66q0-7.68-6.68-12.36T556,151.75q-27.06,0-46.6,18.87A119.77,119.77,0,0,0,480,216.72a158.66,158.66,0,0,0-9.59,43.92h4.08c-1.37,4-2.81,7.8-4.29,11.38q.73,25.17,12.64,37.38,12.69,13,31.73,13,22.71,0,40.08-18.71l-3,14q-19.71,6-31.39,11.36a50.32,50.32,0,0,0-19,14.69q-7.35,9.34-7.35,24.05a32.65,32.65,0,0,0,11.86,25.89,41,41,0,0,0,27.55,10.18,61.62,61.62,0,0,0,37.25-12.36Q587.34,379.2,594,347.14l40.75-193.72ZM545.26,348.14q-3,13.69-8.35,19.88c-3.57,4.11-7.35,6.18-11.36,6.18a13.75,13.75,0,0,1-9.35-3.51c-2.67-2.34-4-4.84-4-7.52a25.62,25.62,0,0,1,9.69-20.7q9.68-8,27.39-14ZM563,265q-3.35,12-11.19,18.54T536.24,290a16.42,16.42,0,0,1-11.86-4.68q-4.85-4.67-4.84-21.37t6-38.58q6-21.87,16.7-37.41t24-15.53q11,0,13.69,11.69Z"/><path class="cls-2" d="M470.37,260.64q-.25,4-.26,8c0,1.14,0,2.27.05,3.37,1.48-3.58,2.92-7.37,4.29-11.38Z"/></g></g></svg>
